<svg width="18" height="17" viewBox="0 0 18 17" fill="none" xmlns="http://www.w3.org/2000/svg">
<path fill-rule="evenodd" clip-rule="evenodd" d="M8.47656 1.723C5.2549 1.723 2.64323 4.33467 2.64323 7.55633C2.64323 10.778 5.2549 13.3897 8.47656 13.3897C10.0482 13.3897 11.4746 12.7681 12.5236 11.7575C12.5455 11.729 12.5695 11.7015 12.5956 11.6754C12.6218 11.6493 12.6492 11.6253 12.6777 11.6033C13.6884 10.5544 14.3099 9.12796 14.3099 7.55633C14.3099 4.33467 11.6982 1.723 8.47656 1.723ZM14.3365 12.2377C15.3628 10.9547 15.9766 9.32718 15.9766 7.55633C15.9766 3.4142 12.6187 0.0563354 8.47656 0.0563354C4.33443 0.0563354 0.976562 3.4142 0.976562 7.55633C0.976562 11.6985 4.33443 15.0563 8.47656 15.0563C10.2474 15.0563 11.8749 14.4426 13.158 13.4163L16.2206 16.4789C16.5461 16.8044 17.0737 16.8044 17.3992 16.4789C17.7246 16.1535 17.7246 15.6258 17.3992 15.3004L14.3365 12.2377Z" fill="#868E96"/>
</svg>
